<svg width="62" height="18" viewBox="0 0 62 18" fill="none" xmlns="http://www.w3.org/2000/svg">
<path d="M13.096 1.22V1.592H12.356V4H11.9V1.592H11.156V1.22H13.096ZM15.7778 1.22V4H15.3218V2.784H14.0138V4H13.5578V1.22H14.0138V2.412H15.3218V1.22H15.7778ZM16.8341 1.588V2.404H17.7941V2.776H16.8341V3.628H17.9141V4H16.3781V1.216H17.9141V1.588H16.8341Z" fill="white"/>
<path d="M0.396 8.776C0.396 7.944 0.576 7.204 0.936 6.556C1.296 5.9 1.796 5.392 2.436 5.032C3.084 4.664 3.816 4.48 4.632 4.48C5.632 4.48 6.488 4.744 7.2 5.272C7.912 5.8 8.388 6.52 8.628 7.432H6.372C6.204 7.08 5.964 6.812 5.652 6.628C5.348 6.444 5 6.352 4.608 6.352C3.976 6.352 3.464 6.572 3.072 7.012C2.68 7.452 2.484 8.04 2.484 8.776C2.484 9.512 2.68 10.1 3.072 10.54C3.464 10.98 3.976 11.2 4.608 11.2C5 11.2 5.348 11.108 5.652 10.924C5.964 10.74 6.204 10.472 6.372 10.12H8.628C8.388 11.032 7.912 11.752 7.2 12.28C6.488 12.8 5.632 13.06 4.632 13.06C3.816 13.06 3.084 12.88 2.436 12.52C1.796 12.152 1.296 11.644 0.936 10.996C0.576 10.348 0.396 9.608 0.396 8.776ZM11.3366 7.42C11.5766 7.052 11.8766 6.764 12.2366 6.556C12.5966 6.34 12.9966 6.232 13.4366 6.232V8.404H12.8726C12.3606 8.404 11.9766 8.516 11.7206 8.74C11.4646 8.956 11.3366 9.34 11.3366 9.892V13H9.28462V6.304H11.3366V7.42ZM13.4094 9.64C13.4094 8.952 13.5374 8.348 13.7934 7.828C14.0574 7.308 14.4134 6.908 14.8614 6.628C15.3094 6.348 15.8094 6.208 16.3614 6.208C16.8334 6.208 17.2454 6.304 17.5974 6.496C17.9574 6.688 18.2334 6.94 18.4254 7.252V6.304H20.4774V13H18.4254V12.052C18.2254 12.364 17.9454 12.616 17.5854 12.808C17.2334 13 16.8214 13.096 16.3494 13.096C15.8054 13.096 15.3094 12.956 14.8614 12.676C14.4134 12.388 14.0574 11.984 13.7934 11.464C13.5374 10.936 13.4094 10.328 13.4094 9.64ZM18.4254 9.652C18.4254 9.14 18.2814 8.736 17.9934 8.44C17.7134 8.144 17.3694 7.996 16.9614 7.996C16.5534 7.996 16.2054 8.144 15.9174 8.44C15.6374 8.728 15.4974 9.128 15.4974 9.64C15.4974 10.152 15.6374 10.56 15.9174 10.864C16.2054 11.16 16.5534 11.308 16.9614 11.308C17.3694 11.308 17.7134 11.16 17.9934 10.864C18.2814 10.568 18.4254 10.164 18.4254 9.652ZM24.722 8.008H23.618V13H21.566V8.008H20.822V6.304H21.566V6.112C21.566 5.288 21.802 4.664 22.274 4.24C22.746 3.808 23.438 3.592 24.35 3.592C24.502 3.592 24.614 3.596 24.686 3.604V5.344C24.294 5.32 24.018 5.376 23.858 5.512C23.698 5.648 23.618 5.892 23.618 6.244V6.304H24.722V8.008ZM28.8182 11.26V13H27.7742C27.0302 13 26.4502 12.82 26.0342 12.46C25.6182 12.092 25.4102 11.496 25.4102 10.672V8.008H24.5942V6.304H25.4102V4.672H27.4622V6.304H28.8062V8.008H27.4622V10.696C27.4622 10.896 27.5102 11.04 27.6062 11.128C27.7022 11.216 27.8622 11.26 28.0862 11.26H28.8182ZM32.0852 13.096C31.5012 13.096 30.9812 12.996 30.5252 12.796C30.0692 12.596 29.7092 12.324 29.4452 11.98C29.1812 11.628 29.0332 11.236 29.0012 10.804H31.0292C31.0532 11.036 31.1612 11.224 31.3532 11.368C31.5452 11.512 31.7812 11.584 32.0612 11.584C32.3172 11.584 32.5132 11.536 32.6492 11.44C32.7932 11.336 32.8652 11.204 32.8652 11.044C32.8652 10.852 32.7652 10.712 32.5652 10.624C32.3652 10.528 32.0412 10.424 31.5932 10.312C31.1132 10.2 30.7132 10.084 30.3932 9.964C30.0732 9.836 29.7972 9.64 29.5652 9.376C29.3332 9.104 29.2172 8.74 29.2172 8.284C29.2172 7.9 29.3212 7.552 29.5292 7.24C29.7452 6.92 30.0572 6.668 30.4652 6.484C30.8812 6.3 31.3732 6.208 31.9412 6.208C32.7812 6.208 33.4412 6.416 33.9212 6.832C34.4092 7.248 34.6892 7.8 34.7612 8.488H32.8652C32.8332 8.256 32.7292 8.072 32.5532 7.936C32.3852 7.8 32.1612 7.732 31.8812 7.732C31.6412 7.732 31.4572 7.78 31.3292 7.876C31.2012 7.964 31.1372 8.088 31.1372 8.248C31.1372 8.44 31.2372 8.584 31.4372 8.68C31.6452 8.776 31.9652 8.872 32.3972 8.968C32.8932 9.096 33.2972 9.224 33.6092 9.352C33.9212 9.472 34.1932 9.672 34.4252 9.952C34.6652 10.224 34.7892 10.592 34.7972 11.056C34.7972 11.448 34.6852 11.8 34.4612 12.112C34.2452 12.416 33.9292 12.656 33.5132 12.832C33.1052 13.008 32.6292 13.096 32.0852 13.096ZM43.9966 6.232C44.8286 6.232 45.4886 6.484 45.9766 6.988C46.4726 7.492 46.7206 8.192 46.7206 9.088V13H44.6806V9.364C44.6806 8.932 44.5646 8.6 44.3326 8.368C44.1086 8.128 43.7966 8.008 43.3966 8.008C42.9966 8.008 42.6806 8.128 42.4486 8.368C42.2246 8.6 42.1126 8.932 42.1126 9.364V13H40.0726V9.364C40.0726 8.932 39.9566 8.6 39.7246 8.368C39.5006 8.128 39.1886 8.008 38.7886 8.008C38.3886 8.008 38.0726 8.128 37.8406 8.368C37.6166 8.6 37.5046 8.932 37.5046 9.364V13H35.4526V6.304H37.5046V7.144C37.7126 6.864 37.9846 6.644 38.3206 6.484C38.6566 6.316 39.0366 6.232 39.4606 6.232C39.9646 6.232 40.4126 6.34 40.8046 6.556C41.2046 6.772 41.5166 7.08 41.7406 7.48C41.9726 7.112 42.2886 6.812 42.6886 6.58C43.0886 6.348 43.5246 6.232 43.9966 6.232ZM53.8677 9.544C53.8677 9.736 53.8557 9.936 53.8317 10.144H49.1877C49.2197 10.56 49.3517 10.88 49.5837 11.104C49.8237 11.32 50.1157 11.428 50.4597 11.428C50.9717 11.428 51.3277 11.212 51.5277 10.78H53.7117C53.5997 11.22 53.3957 11.616 53.0997 11.968C52.8117 12.32 52.4477 12.596 52.0077 12.796C51.5677 12.996 51.0757 13.096 50.5317 13.096C49.8757 13.096 49.2917 12.956 48.7797 12.676C48.2677 12.396 47.8677 11.996 47.5797 11.476C47.2917 10.956 47.1477 10.348 47.1477 9.652C47.1477 8.956 47.2877 8.348 47.5677 7.828C47.8557 7.308 48.2557 6.908 48.7677 6.628C49.2797 6.348 49.8677 6.208 50.5317 6.208C51.1797 6.208 51.7557 6.344 52.2597 6.616C52.7637 6.888 53.1557 7.276 53.4357 7.78C53.7237 8.284 53.8677 8.872 53.8677 9.544ZM51.7677 9.004C51.7677 8.652 51.6477 8.372 51.4077 8.164C51.1677 7.956 50.8677 7.852 50.5077 7.852C50.1637 7.852 49.8717 7.952 49.6317 8.152C49.3997 8.352 49.2557 8.636 49.1997 9.004H51.7677ZM58.4303 6.232C59.2143 6.232 59.8383 6.488 60.3023 7C60.7743 7.504 61.0103 8.2 61.0103 9.088V13H58.9703V9.364C58.9703 8.916 58.8543 8.568 58.6223 8.32C58.3903 8.072 58.0783 7.948 57.6863 7.948C57.2943 7.948 56.9823 8.072 56.7503 8.32C56.5183 8.568 56.4023 8.916 56.4023 9.364V13H54.3503V6.304H56.4023V7.192C56.6103 6.896 56.8903 6.664 57.2423 6.496C57.5943 6.32 57.9903 6.232 58.4303 6.232Z" fill="white"/>
</svg>
